<svg xmlns="http://www.w3.org/2000/svg" viewBox="0 0 72 72"><defs><style>.cls-1{fill:#898989;}.cls-2{fill:none;}</style></defs><g id="Layer_2" data-name="Layer 2"><g id="Layer_1-2" data-name="Layer 1"><rect class="cls-1" x="34.87" y="49.18" width="2.27" height="2"/><rect class="cls-1" x="14.45" y="49.18" width="2.27" height="2"/><rect class="cls-1" x="28.06" y="49.18" width="2.27" height="2"/><rect class="cls-1" x="21.25" y="49.18" width="2.27" height="2"/><rect class="cls-1" x="55.28" y="49.18" width="2.27" height="2"/><rect class="cls-1" x="41.67" y="49.18" width="2.27" height="2"/><rect class="cls-1" x="48.48" y="49.18" width="2.27" height="2"/><path class="cls-1" d="M11.43,48.32,9.61,47.5l5.16-11.56C16,33.31,17.14,31,20.12,31h1.13v2H20.12c-1.65,0-2.28,1.16-3.54,3.78l-.1.19Z"/><path class="cls-1" d="M57.55,55.72H14.45a5.54,5.54,0,0,1,0-11.08h43.1a5.54,5.54,0,1,1,0,11.08Zm-43.1-9.08a3.54,3.54,0,0,0,0,7.08h43.1a3.54,3.54,0,1,0,0-7.08Z"/><path class="cls-1" d="M60.57,48.32,55.42,36.81C54.16,34.19,53.53,33,51.88,33H50.75V31h1.13c3,0,4.08,2.28,5.35,4.91l.09.19L62.39,47.5Z"/><path class="cls-1" d="M49.48,41h-27V22.76l2.6-6.48H46.89l2.59,6.48Zm-25-2h23V23.15l-1.95-4.87H26.47l-1.95,4.87Z"/><rect class="cls-1" x="23.52" y="21.96" width="24.96" height="2"/><rect class="cls-2" width="72" height="72"/></g></g></svg>