<svg xmlns="http://www.w3.org/2000/svg" viewBox="0 0 72 72"><defs><style>.cls-1{fill:#878787;}.cls-2{fill:#8b8a8a;}.cls-3{fill:none;}</style></defs><g id="Layer_2" data-name="Layer 2"><g id="Layer_1-2" data-name="Layer 1"><path class="cls-1" d="M62,43.39A1.07,1.07,0,0,0,61,42.29h-.43l0-.05a16.64,16.64,0,0,0-.46-1.78,13.06,13.06,0,0,0-11.3-8.8A12.61,12.61,0,0,0,37.5,36.78a12.44,12.44,0,0,0-2.45,5.5h-.3a1.07,1.07,0,0,0-1.15,1.17v1.65c0,.87.4,1.26,1.27,1.26h26A1.06,1.06,0,0,0,62,45.25C62,44.62,62,44,62,43.39ZM42.73,35v3.64a2.18,2.18,0,0,0,0,.25,1.06,1.06,0,0,0,1,1h0a1,1,0,0,0,1.05-1,6.82,6.82,0,0,0,0-.78V37c0-.95,0-1.94,0-2.92a7.54,7.54,0,0,1,1.88-.34v7.11c0,.09,0,.19,0,.3a1,1,0,0,0,1,.94,1,1,0,0,0,1.11-.77,1.66,1.66,0,0,0,.06-.52V33.79a10.54,10.54,0,0,1,1.87.34v1.64c0,1,0,2,0,3a1.1,1.1,0,0,0,.32.81,1.06,1.06,0,0,0,1.8-.77.49.49,0,0,0,0-.12V35a10.7,10.7,0,0,1,5.69,8.35,1.19,1.19,0,0,0,.44.88H36.61a1.27,1.27,0,0,0,.45-.93A10.8,10.8,0,0,1,42.73,35Z"/><path class="cls-1" d="M47.91,58.1A10.36,10.36,0,0,1,37.56,47.75h-1.2a11.55,11.55,0,0,0,23.1,0h-1.2A10.36,10.36,0,0,1,47.91,58.1Z"/><path class="cls-2" d="M30.1,45.11v-.89H26.79V40H31v.6a4.26,4.26,0,0,1,1.13-1.07,15.56,15.56,0,0,1,1-2.34V33.72h2.4a17.5,17.5,0,0,1,3.9-3.3v-3h4.21v1.23a16.38,16.38,0,0,1,4.17-.53h0V14.8H37.3V12.7H33.1v2.1H24.69V12.7h-4.2v2.1H10V48.43H31.33A4.76,4.76,0,0,1,30.1,45.11Zm.9-7.19H26.79v-4.2H31Zm0-6.31H26.79v-4.2H31Zm6.3,0H33.1v-4.2h4.2ZM14.18,19h6.31v2.1h4.2V19H33.1v2.1h4.2V19h6.31v4.2H14.18Zm4.21,25.21H14.18V40h4.21Zm0-6.3H14.18v-4.2h4.21Zm0-6.31H14.18v-4.2h4.21Zm6.3,12.61h-4.2V40h4.2Zm0-6.3h-4.2v-4.2h4.2Zm0-6.31h-4.2v-4.2h4.2Z"/><rect class="cls-3" width="72" height="72"/></g></g></svg>