<svg xmlns="http://www.w3.org/2000/svg" viewBox="0 0 72 72"><defs><style>.cls-1{fill:none;}.cls-2{fill:#898989;}.cls-3{fill:#8a8a8a;}</style></defs><g id="Layer_2" data-name="Layer 2"><g id="Layer_1-2" data-name="Layer 1"><g id="Layer_2-2" data-name="Layer 2"><g id="Layer_1-2-2" data-name="Layer 1-2"><rect class="cls-1" width="72" height="72"/><path class="cls-2" d="M62.44,61V22.68l1.14.25a1.33,1.33,0,0,0,1.12-.26,1.3,1.3,0,0,0,.5-1V17.15a1.33,1.33,0,0,0-1-1.29L36.31,9a1.34,1.34,0,0,0-.63,0L7.81,15.86a1.33,1.33,0,0,0-1,1.29v4.49A1.33,1.33,0,0,0,8.12,23a1.53,1.53,0,0,0,.3,0l1.14-.25V61H6v2h60.1V61ZM12.21,22.08,36,16.75l23.79,5.33V60.19H12.21ZM9.45,20V18.19L36,11.69l26.55,6.5V20L36.29,14.1a1.07,1.07,0,0,0-.58,0Z"/><path class="cls-3" d="M40.37,45.28v-3.4H37.44a9.91,9.91,0,0,0-1.52-3.63L38,36.14l-2.46-2.46-2.11,2.11a10,10,0,0,0-3.64-1.53V31.33H26.43v2.93a10,10,0,0,0-3.64,1.53l-2.11-2.11-2.46,2.46,2.11,2.11a9.91,9.91,0,0,0-1.52,3.63H15.88v3.4h2.93a9.91,9.91,0,0,0,1.52,3.63L18.22,51l2.46,2.46,2.11-2.11a10,10,0,0,0,3.64,1.53v2.93h3.39V52.9a10,10,0,0,0,3.64-1.53l2.11,2.11L38,51l-2.11-2.11a9.91,9.91,0,0,0,1.52-3.63ZM22.09,43.52a6,6,0,1,1,6,6,6,6,0,0,1-6-6"/><path class="cls-3" d="M54.55,39.77l.82-2.46-2.11-.7A6.23,6.23,0,0,0,53,33.68l2-.94L53.85,30.4l-2,.93a5.71,5.71,0,0,0-2.22-1.87l.7-2.11-2.46-.82-.7,2.11a6.23,6.23,0,0,0-2.93.23l-.71-2-2.34,1.17.94,2a5.74,5.74,0,0,0-1.88,2.22l-2.11-.7-.82,2.34,2.11.71a6.33,6.33,0,0,0,.24,2.92l-2,.94,1.17,2.35,2-.94a5.82,5.82,0,0,0,2.23,1.87l-.71,2.11,2.46.82.71-2.11a6.24,6.24,0,0,0,2.93-.23l.93,2,2.35-1.17-.94-2A5.84,5.84,0,0,0,52.68,39ZM42.13,34.15a4.45,4.45,0,1,1,2.81,5.62,4.46,4.46,0,0,1-2.81-5.62"/></g></g></g></g></svg>