<svg xmlns="http://www.w3.org/2000/svg" viewBox="0 0 72 72"><defs><style>.cls-1{fill:#898989;}.cls-2{fill:none;}</style></defs><g id="Layer_2" data-name="Layer 2"><g id="Layer_1-2" data-name="Layer 1"><path class="cls-1" d="M59,44.54,55.28,38a3.09,3.09,0,0,0,.77-2,3.14,3.14,0,0,0-.76-2.05l3.57-6.21a3.14,3.14,0,0,0,0-6.26l-3.53-6.11a3.17,3.17,0,0,0,.69-2,3.14,3.14,0,0,0-5.84-1.61H41.84a3.14,3.14,0,1,0-5.3,3.37L32.9,21.47h-.24a3.13,3.13,0,0,0-2.9,1.94H22.42A3.14,3.14,0,0,0,16.56,25,3.16,3.16,0,0,0,17,26.54l-3.84,6.65a3.14,3.14,0,0,0,.12,6.27l3.66,6.32a3.13,3.13,0,0,0,2.79,4.59A3.14,3.14,0,0,0,22.29,49h7.59a3.16,3.16,0,0,0,2.78,1.69l.34,0,3.5,6a3.08,3.08,0,0,0-.5,1.69,3.15,3.15,0,0,0,3.14,3.15,3.11,3.11,0,0,0,2.59-1.37H49.2a3.14,3.14,0,0,0,5.85-1.58,3.08,3.08,0,0,0-.2-1.11l3.95-6.86A3.14,3.14,0,0,0,59,44.54ZM56,49.8l-3.32,5.77a3.23,3.23,0,0,0-.76-.1A3.14,3.14,0,0,0,49,57.34H42.09a3.14,3.14,0,0,0-3-2.06H39L35.4,49.12a3.14,3.14,0,0,0,0-3.17l3.94-6.83a3.13,3.13,0,0,0,2.63-1.68h8.19a3.16,3.16,0,0,0,2.48,1.68l3.52,6.09A3.13,3.13,0,0,0,56,49.8ZM32.66,44.42a3.14,3.14,0,0,0-2.81,1.75H22.66a3.13,3.13,0,0,0-2.95-2.08l-.45,0-3.38-5.85a3.08,3.08,0,0,0,.68-2,3.12,3.12,0,0,0-.75-2l3.56-6.17.34,0a3.15,3.15,0,0,0,2.87-1.86H30a3.13,3.13,0,0,0,2.66,1.49h.12l3.75,6.49A3.23,3.23,0,0,0,36,36a3.16,3.16,0,0,0,.61,1.86l-3.79,6.58Zm6.48-27.89A3.16,3.16,0,0,0,42,14.63h8a3.15,3.15,0,0,0,2.71,1.89l3.48,6a3.16,3.16,0,0,0,0,4.11l-3.58,6.21a3.18,3.18,0,0,0-2.49,1.67H41.93a3.14,3.14,0,0,0-2.76-1.69l-3.82-6.62a3.11,3.11,0,0,0,0-3.27l3.71-6.44Z"/><rect class="cls-2" width="72" height="72"/></g></g></svg>