<svg xmlns="http://www.w3.org/2000/svg" xmlns:xlink="http://www.w3.org/1999/xlink" viewBox="0 0 72 72"><defs><style>.cls-1{fill:none;}.cls-2{clip-path:url(#clip-path);}.cls-3{fill:#898989;}</style><clipPath id="clip-path"><rect class="cls-1" x="12.65" y="12.65" width="46.71" height="46.71"/></clipPath></defs><g id="Layer_2" data-name="Layer 2"><g id="Layer_1-2" data-name="Layer 1"><g class="cls-2"><path class="cls-3" d="M59.35,34.51H39L26.43,12.65V34.51H21.24V22.68c-3.29,3-3.44,7.65-4.63,9.65-.76,1.29-2.51,3.09-3.1,4.39A10.51,10.51,0,0,0,13,43.6c.6,3.22,3.41,4,3.81,7.07.77,5.82,4.44,8,4.44,8V46.54h5.19V59.35H53.17L45.83,46.54H59.35ZM26.43,44.77H21.24V36.28h5.19ZM50.7,57.92H27.86V18L37.3,34.51H33l-1.52-3V52.65H42.31l-3.12-6.11h5ZM32.22,46.54h6.16l2.76,5.39H32.22Zm12.6-1.77H38.28m0,0H32.22V36.28H57.59v8.49H44.82"/><line class="cls-3" x1="33.93" y1="36.28" x2="38.31" y2="36.28"/><polygon class="cls-3" points="32.22 34.51 32.22 34.51 32.22 34.51 32.22 34.51"/><path class="cls-3" d="M55.16,41.32a.79.79,0,0,0,.8-.79.8.8,0,0,0-.8-.8.79.79,0,0,0-.79.8.79.79,0,0,0,.79.79"/></g><rect class="cls-1" width="72" height="72"/></g></g></svg>