<svg xmlns="http://www.w3.org/2000/svg" viewBox="0 0 72 72"><defs><style>.cls-1{fill:#898989;}.cls-2{fill:none;}</style></defs><g id="Layer_2" data-name="Layer 2"><g id="Layer_1-2" data-name="Layer 1"><path class="cls-1" d="M37.21,58H21.53V43.84H37.21ZM23.53,56H35.21V45.84H23.53Z"/><path class="cls-1" d="M49.36,58H35.21V43.84H49.36ZM37.21,56H47.36V45.84H37.21Z"/><path class="cls-1" d="M43.28,45.84H27.61V31.69H43.28Zm-13.67-2H41.28V33.69H29.61Z"/><polygon class="cls-1" points="6.7 32.42 5.63 30.74 33.89 12.72 55.61 25.91 54.57 27.62 33.92 15.08 6.7 32.42"/><rect class="cls-1" x="12.9" y="31.58" width="2" height="26.52"/><rect class="cls-1" x="57.1" y="41.53" width="2" height="16.57"/><path class="cls-1" d="M53.68,41.83l-9.15-9.14L49.26,28l4.42,4.42,8.84-8.84,4.73,4.73Zm-6.32-9.14L53.68,39,64.42,28.27l-1.9-1.91L53.68,35.2l-4.42-4.42Z"/><rect class="cls-2" width="72" height="72"/></g></g></svg>