<svg xmlns="http://www.w3.org/2000/svg" viewBox="0 0 72 72"><defs><style>.cls-1{fill:none;}.cls-2{fill:#898989;}</style></defs><g id="Layer_2" data-name="Layer 2"><g id="Layer_1-2" data-name="Layer 1"><rect class="cls-1" width="72" height="72"/><path class="cls-2" d="M64.5,12.51H7.5V54h9.63c1.74,3.55,10.48,5.45,18.78,5.45S53,57.59,54.68,54H64.5Zm-28.59,45c-8.46,0-14.31-1.78-16.35-3.51h32.7C50.22,55.77,44.37,57.55,35.91,57.55Zm25.59-9h-51v-33h51Z"/><path class="cls-2" d="M37.76,46.15H22.09V32H37.76Zm-13.67-2H35.76V34H24.09Z"/><path class="cls-2" d="M49.91,46.15H35.76V32H49.91Zm-12.15-2H47.91V34H37.76Z"/><path class="cls-2" d="M43.83,34H28.16V19.84H43.83ZM30.16,32H41.83V21.84H30.16Z"/></g></g></svg>