<?xml version="1.0" encoding="UTF-8" standalone="no"?>
<svg
   xmlns:dc="http://purl.org/dc/elements/1.1/"
   xmlns:cc="http://creativecommons.org/ns#"
   xmlns:rdf="http://www.w3.org/1999/02/22-rdf-syntax-ns#"
   xmlns:svg="http://www.w3.org/2000/svg"
   xmlns="http://www.w3.org/2000/svg"
   xmlns:sodipodi="http://sodipodi.sourceforge.net/DTD/sodipodi-0.dtd"
   xmlns:inkscape="http://www.inkscape.org/namespaces/inkscape"
   version="1.1"
   id="Layer_1"
   x="0px"
   y="0px"
   viewBox="0 0 72 72"
   style="enable-background:new 0 0 72 72;"
   xml:space="preserve"
   sodipodi:docname="sps-productivity.svg"
   inkscape:version="1.0.1 (3bc2e813f5, 2020-09-07)"><metadata
   id="metadata25"><rdf:RDF><cc:Work
       rdf:about=""><dc:format>image/svg+xml</dc:format><dc:type
         rdf:resource="http://purl.org/dc/dcmitype/StillImage" /><dc:title></dc:title></cc:Work></rdf:RDF></metadata><defs
   id="defs23" /><sodipodi:namedview
   pagecolor="#ffffff"
   bordercolor="#666666"
   borderopacity="1"
   objecttolerance="10"
   gridtolerance="10"
   guidetolerance="10"
   inkscape:pageopacity="0"
   inkscape:pageshadow="2"
   inkscape:window-width="1920"
   inkscape:window-height="1001"
   id="namedview21"
   showgrid="false"
   inkscape:zoom="11.527778"
   inkscape:cx="36"
   inkscape:cy="36"
   inkscape:window-x="-9"
   inkscape:window-y="-9"
   inkscape:window-maximized="1"
   inkscape:current-layer="Layer_1" />
<style
   type="text/css"
   id="style2">
	.st0{fill:none;}
	.st1{fill:#717171;}
</style>
<g
   id="Layer_2_1_">
	<g
   id="Layer_1-2">
		<rect
   y="0"
   class="st0"
   width="72"
   height="72"
   id="rect4" />
		<path
   class="st1"
   d="M34.6,39l0.9-0.3l0.6-0.3l0.2-0.1l0.2-0.1l0.2-0.1l0.2-0.1c0.1-0.1,0.2-0.1,0.3-0.2l0.3-0.2l0.3-0.2l0.5-0.4    l0,0l0.3-0.2l0.7-0.5l0.1-0.1c0.2-0.2,0.5-0.4,0.7-0.6l0.1-0.1l0.5-0.5c0,0,0.1-0.1,0.1-0.1c2,2.8,3.7,5.9,4.9,9.1H49    c-0.8-2.3-1.8-4.5-3-6.6l0,0c-1-1.8-2.1-3.5-3.3-5.1c1.5-2.4,2.2-5.2,2.2-8l0,0c0-8.6-7-15.5-15.6-15.4c-8.6,0-15.5,7-15.4,15.6    c0,2.8,0.8,5.6,2.2,8l0,0c-1.2,1.6-2.3,3.3-3.3,5.1l0,0c-3.2,5.8-5,12.2-5.4,18.8v1l0.9,0.5c6.5,3.5,13.7,5.4,21.1,5.4    c1.1,0,2.1,0,3.2-0.1V60c-1.1,0.1-2.1,0.1-3.2,0.1c-6.5,0-13-1.6-18.8-4.5c0.6-7.4,3.1-14.5,7.4-20.6c0.7,0.7,1.4,1.4,2.2,1.9    l0.3,0.2l0,0l0.5,0.3l0.3,0.2l0.3,0.2l0.3,0.2l0.1,0.1l0.2,0.1l0.2,0.1l0.2,0.1l0.6,0.3l0.9,0.3c0.3,0.1,0.6,0.2,0.9,0.3l0.2,0.1    l0.3,0.1l0.4,0.1l0.5,0.1h0.2l0.5,0.1h0.2h0.1h0.2l0,0H28h0h0.2h0.3h1.6h0.3h0.2l0,0c0.1,0,0.2,0,0.3,0l0,0h0.2h0.1h0.2l0.5-0.1    h0.2l0.5-0.1l0.4-0.1l0.3-0.1l0.2-0.1l0.4-0.1l0.2-0.1L34.6,39z M18.6,18.2c3.6-5.8,11.2-7.7,17.1-4.1s7.7,11.2,4.1,17.1l0,0    l-0.1,0.1l-0.2,0.3c-0.9,1.3-2.1,2.4-3.4,3.3L35.9,35l0,0l-0.2,0.1l-0.2,0.1h0l-0.3,0.2l-0.7,0.3l-0.5,0.2L33.7,36l-0.2,0.1    l-0.3,0.1l-0.2,0.1l-0.3,0.1l-0.7,0.2l-0.3,0.1l-0.5,0.1l-0.4,0.1h-0.1h-0.3h-0.3h-0.3h-1.2h-0.3h-0.3l-0.5-0.1L27,36.5l-0.3-0.1    l-0.6-0.2c-0.3-0.1-0.5-0.2-0.8-0.2L25.1,36l-0.2-0.1l-0.5-0.2l-0.7-0.3l-0.3-0.2h-0.1l-0.2-0.1L23,35l0,0l-0.3-0.2    c-1.3-0.9-2.5-2-3.4-3.3l-0.2-0.3C16.5,27.4,16.3,22.3,18.6,18.2L18.6,18.2z"
   id="path6" />
		<path
   class="st1"
   d="M64.5,46.2l-20.5,0l-5.1-4.7v4.8h-3.8v16.8L64.5,63L64.5,46.2z M36.7,61.5V47.8h3.7V45l3,2.7H63v13.7    L36.7,61.5z"
   id="path8" />
		
			<rect
   x="39.3"
   y="56.7"
   transform="matrix(1 -1.919857e-03 1.919857e-03 1 -0.1116 7.852695e-02)"
   class="st1"
   width="3.1"
   height="3"
   id="rect10" />
		
			<rect
   x="45.3"
   y="54.6"
   transform="matrix(1 -1.919857e-03 1.919857e-03 1 -0.1096 9.000203e-02)"
   class="st1"
   width="3.1"
   height="5"
   id="rect12" />
		<rect
   x="51.2"
   y="52.6"
   transform="matrix(1 -1.919857e-03 1.919857e-03 1 -0.1076 0.1015)"
   class="st1"
   width="3.1"
   height="7"
   id="rect14" />
		<rect
   x="57.2"
   y="50.6"
   transform="matrix(1 -1.919857e-03 1.919857e-03 1 -0.1057 0.1129)"
   class="st1"
   width="3.1"
   height="9"
   id="rect16" />
	</g>
</g>
</svg>
