<?xml version="1.0" encoding="UTF-8" standalone="no"?>
<svg
   xmlns:dc="http://purl.org/dc/elements/1.1/"
   xmlns:cc="http://creativecommons.org/ns#"
   xmlns:rdf="http://www.w3.org/1999/02/22-rdf-syntax-ns#"
   xmlns:svg="http://www.w3.org/2000/svg"
   xmlns="http://www.w3.org/2000/svg"
   xmlns:sodipodi="http://sodipodi.sourceforge.net/DTD/sodipodi-0.dtd"
   xmlns:inkscape="http://www.inkscape.org/namespaces/inkscape"
   version="1.1"
   id="Layer_1"
   x="0px"
   y="0px"
   viewBox="0 0 73 72"
   style="enable-background:new 0 0 73 72;"
   xml:space="preserve"
   sodipodi:docname="sps-automation_ALT.svg"
   inkscape:version="1.0.1 (3bc2e813f5, 2020-09-07)"><metadata
   id="metadata26"><rdf:RDF><cc:Work
       rdf:about=""><dc:format>image/svg+xml</dc:format><dc:type
         rdf:resource="http://purl.org/dc/dcmitype/StillImage" /><dc:title></dc:title></cc:Work></rdf:RDF></metadata><defs
   id="defs24" /><sodipodi:namedview
   pagecolor="#ffffff"
   bordercolor="#666666"
   borderopacity="1"
   objecttolerance="10"
   gridtolerance="10"
   guidetolerance="10"
   inkscape:pageopacity="0"
   inkscape:pageshadow="2"
   inkscape:window-width="1920"
   inkscape:window-height="1001"
   id="namedview22"
   showgrid="false"
   inkscape:zoom="11.527778"
   inkscape:cx="36.5"
   inkscape:cy="36"
   inkscape:window-x="-9"
   inkscape:window-y="-9"
   inkscape:window-maximized="1"
   inkscape:current-layer="Layer_1" />
<style
   type="text/css"
   id="style2">
	.st0{fill:none;}
	.st1{fill:#727372;}
	.st2{fill:#707171;}
</style>
<g
   id="g19">
	<g
   id="g17">
		<rect
   class="st0"
   width="72"
   height="72"
   id="rect4" />
		<g
   id="g7">
			<path
   id="XMLID_2_"
   class="st1"
   d="M64.5,12.5h-57V54h9.6c1.7,3.5,10.5,5.4,18.8,5.4c8.3,0,17-1.9,18.8-5.4h9.8V12.5z M35.9,57.5     c-8.5,0-14.3-1.8-16.4-3.5h32.7C50.2,55.8,44.4,57.5,35.9,57.5z M61.5,48.5h-51v-33h51V48.5z" />
		</g>
		<g
   id="g15">
			<g
   id="g13">
				<path
   class="st2"
   d="M36,28c-2.9,0-5.3,2.4-5.3,5.3s2.4,5.3,5.3,5.3c2.9,0,5.3-2.4,5.3-5.3S38.9,28,36,28z M36,37.2      c-2.2,0-4-1.8-4-4s1.8-4,4-4c2.2,0,4,1.8,4,4S38.2,37.2,36,37.2z"
   id="path9" />
				<path
   class="st2"
   d="M43.3,29l1.5-1.9l-2.6-2.6L40.2,26c-0.7-0.4-1.4-0.7-2.1-0.9l-0.3-2.4h-3.7l-0.3,2.4      c-0.7,0.2-1.4,0.5-2.1,0.9l-1.9-1.5l-2.6,2.6l1.5,1.9c-0.4,0.7-0.7,1.4-0.9,2.1l-2.4,0.3v3.7l2.4,0.3c0.2,0.7,0.5,1.4,0.9,2.1      l-1.5,1.9l2.6,2.6l1.9-1.5c0.7,0.4,1.4,0.7,2.1,0.9l0.3,2.4h3.7l0.3-2.4c0.7-0.2,1.4-0.5,2.1-0.9l1.9,1.5l2.6-2.6l-1.5-1.9      c0.4-0.7,0.7-1.4,0.9-2.1l2.4-0.3v-3.7l-2.4-0.3C44,30.4,43.7,29.7,43.3,29z M45.3,34l-2.2,0.3L43,34.7c-0.2,0.9-0.5,1.7-1,2.5      l-0.3,0.4l1.4,1.8l-1,1L40.3,39l-0.4,0.3c-0.8,0.5-1.6,0.8-2.5,1L37,40.3l-0.3,2.2h-1.4L35,40.3l-0.5-0.1      c-0.9-0.2-1.7-0.5-2.5-1L31.7,39l-1.8,1.4l-1-1l1.4-1.8L30,37.2c-0.5-0.8-0.8-1.6-1-2.5l-0.1-0.5L26.7,34v-1.4l2.2-0.3l0.1-0.5      c0.2-0.9,0.5-1.7,1-2.5l0.3-0.4l-1.4-1.8l1-1l1.8,1.4l0.4-0.3c0.8-0.5,1.6-0.8,2.5-1l0.5-0.1l0.3-2.2h1.4l0.3,2.2l0.5,0.1      c0.9,0.2,1.7,0.5,2.5,1l0.4,0.3l1.8-1.4l1,1l-1.4,1.8l0.3,0.4c0.5,0.8,0.8,1.6,1,2.5l0.1,0.5l2.2,0.3V34z"
   id="path11" />
			</g>
		</g>
	</g>
</g>
</svg>
