<svg xmlns="http://www.w3.org/2000/svg" viewBox="0 0 72 72"><defs><style>.cls-1{fill:#707070;}.cls-2{fill:none;}</style></defs><g id="Layer_2" data-name="Layer 2"><g id="Layer_1-2" data-name="Layer 1"><g id="Layer_2-2" data-name="Layer 2"><g id="Layer_1-2-2" data-name="Layer 1-2"><path class="cls-1" d="M17,41.73l-3,2.94V55.45l3,3.92H28l7-5.29h2l6,5.29H54l4-3.92v-9.8l-4-3.92ZM55.67,54.45,53.07,57H43.91l-5.34-4.7-.67-.59H34.2l-.63.48L27.19,57H18.13l-1.8-2.35v-9l1.6-1.56H53.07l2.6,2.54Z"/><path class="cls-1" d="M59.2,35.12a23.26,23.26,0,0,0-17.91-21.3V12.63H30.71v1.19A23.26,23.26,0,0,0,12.8,35.12H11.75v3.53h48.5V35.12Zm-27.54,0V16a21.15,21.15,0,0,1,8.68,0V35.12Zm25.15,0H41.29V16.27A20.88,20.88,0,0,1,56.81,35.12ZM40.34,13.62h0Zm-8.68,0h0Zm-.95,2.69V35.12H15.19A20.88,20.88,0,0,1,30.71,16.27Z"/><rect class="cls-2" width="72" height="72"/></g></g></g></g></svg>